[Header]
FileType HTR
DataType HTRS
FileVersion 1
NumSegments 22
NumFrames 8
DataFrameRate 24
EulerRotationOrder ZYX
CalibrationUnits mm
RotationUnits Degrees
GlobalAxisofGravity Y
BoneLengthAxis Y
ScaleFactor 1.0
[SegmentNames&Hierarchy]
reference	GLOBAL
Hips	reference
Spine	Hips
Spine1	Spine
Neck	Spine1
Head	Neck
LeftShoulder	Spine1
LeftArm	LeftShoulder
LeftForeArm	LeftArm
LeftHand	LeftForeArm
RightShoulder	Spine1
RightArm	RightShoulder
RightForeArm	RightArm
RightHand	RightForeArm
LeftUpLeg	Hips
LeftLeg	LeftUpLeg
LeftFoot	LeftLeg
LeftToeBase	LeftFoot
RightUpLeg	Hips
RightLeg	RightUpLeg
RightFoot	RightLeg
RightToeBase	RightFoot
[BasePosition]
reference	0	0	0	0	0	0	1
Hips	0	0	0	0	0	0	1
Spine	0	0	0	0	-0	90	1
Spine1	0	0	0	0	0	0	1
Neck	0	0	0	-7.352327771	-7.352327771	90	1
Head	0	0	0	0	-0	90	1
LeftShoulder	0	0	0	0	0	0	1
LeftArm	0	0	0	0	0	0	1
LeftForeArm	0	0	0	0	0	0	1
LeftHand	0	0	0	0	0	0	1
RightShoulder	0	0	0	0	-0	180	1
RightArm	0	0	0	0	-0	180	1
RightForeArm	0	0	0	0	-0	180	1
RightHand	0	0	0	0	-0	180	1
LeftUpLeg	0	0	0	0	-0	-90	1
LeftLeg	0	0	0	0	-0	-90	1
LeftFoot	0	0	0	66.57146043	-66.57146043	-90	1
LeftToeBase	0	0	0	0	-90	0	1
RightUpLeg	0	0	0	0	-0	-90	1
RightLeg	0	0	0	0	-0	-90	1
RightFoot	0	0	0	66.57146043	-66.57146043	-90	1
RightToeBase	0	0	0	0	-90	0	1
[reference]
73	0	0	0	0	-0	0	1.0
74	0	0	0	0	-0	0	1.0
75	0	0	0	0	-0	0	1.0
76	0	0	0	0	-0	0	1.0
77	0	0	0	0	-0	0	1.0
78	0	0	0	0	-0	0	1.0
79	0	0	0	0	-0	0	1.0
80	0	0	0	0	-0	0	1.0
[Hips]
73	-4.109620094	8.300739288	-4.67553997	-0.443069458	-133.6023254	1.061294556	1.0
74	-4.319005013	8.237407684	-4.881760597	-0.7545406818	-132.2246857	0.103824757	1.0
75	-4.513459682	8.167313576	-5.104345798	-1.688350558	-131.0796509	-0.0142873181	1.0
76	-4.686715126	8.198692322	-5.352874279	-5.640267372	-131.7597046	3.803502083	1.0
77	-4.853920937	8.27191925	-5.553064346	-6.841026306	-133.6307831	4.860480309	1.0
78	-5.006511211	8.285366058	-5.749649048	-5.969855309	-133.3605804	3.698636055	1.0
79	-5.11909008	8.295419693	-5.920969963	-6.524414063	-132.7189789	4.26739502	1.0
80	-5.219593048	8.302979469	-6.074127197	-8.108347893	-132.9542694	6.285123348	1.0
[Spine]
73	0	0.7457100153	0	-4.415930271	-5.504457951	-90.85073853	1.0
74	0	0.7457100153	0	-3.740769386	-6.138444424	-91.71240997	1.0
75	0	0.7457100153	0	-4.220024109	-6.26574707	-91.36838531	1.0
76	0	0.7457100153	0	-4.589100361	-6.168374062	-88.90699768	1.0
77	0	0.7457100153	0	-4.531404495	-6.27041626	-88.29040527	1.0
78	0	0.7457100153	0	-4.597909927	-6.67313385	-89.48732758	1.0
79	0	0.7457100153	0	-3.879063368	-6.906509399	-89.61659241	1.0
80	0	0.7457100153	0	-4.265913486	-6.226191998	-88.05397034	1.0
[Spine1]
73	0	2.140589952	0	8.394823074	-1.891366601	0.9077968001	1.0
74	0	2.140589952	0	8.389865875	-2.094941378	0.7090009451	1.0
75	0	2.140589952	0	9.29338932	-2.129217863	0.3286658823	1.0
76	0	2.140589952	0	11.42044067	-2.11119771	-0.08114496619	1.0
77	0	2.140589952	0	11.05118942	-2.149715662	0.3612802029	1.0
78	0	2.140589952	0	9.720885277	-2.314302921	0.9443520904	1.0
79	0	2.140589952	0	8.890231133	-2.321765184	1.011585116	1.0
80	0	2.140589952	0	10.29694843	-2.200469732	1.387095094	1.0
[Neck]
73	0	2.32246995	0	-12.60194683	12.51763248	-88.58546448	1.0
74	0	2.32246995	0	-11.72728348	12.08656693	-88.20335388	1.0
75	0	2.32246995	0	-11.09839058	11.67938805	-88.75320435	1.0
76	0	2.32246995	0	-10.79269409	12.25633812	-88.53656006	1.0
77	0	2.32246995	0	-8.339262009	13.23172283	-89.22676849	1.0
78	0	2.32246995	0	-5.811415195	13.37461185	-89.59284973	1.0
79	0	2.32246995	0	-5.584933281	13.12083817	-89.35916138	1.0
80	0	2.32246995	0	-7.5785923	12.80317879	-89.7999115	1.0
[Head]
73	0	1.409579992	0.1818799973	-1.598812461	5.664624214	-92.92861176	1.0
74	0	1.409579992	0.1818799973	-2.189799309	5.178697109	-92.87877655	1.0
75	0	1.409579992	0.1818799973	-3.100662708	4.740942955	-92.82785034	1.0
76	0	1.409579992	0.1818799973	-2.42812252	5.485856533	-93.95788574	1.0
77	0	1.409579992	0.1818799973	-2.047819376	6.552303791	-94.11090088	1.0
78	0	1.409579992	0.1818799973	-2.053462982	6.65139246	-93.71509552	1.0
79	0	1.409579992	0.1818799973	-2.302044868	6.374076843	-93.66876221	1.0
80	0	1.409579992	0.1818799973	-2.763794661	6.031607628	-93.70005798	1.0
[LeftShoulder]
73	0.3668199778	1.946700096	-0.02662999928	-16.58424568	-17.00602531	-0.6535684466	1.0
74	0.3668199778	1.946700096	-0.02662999928	-16.79889297	-17.59549522	-0.4939791858	1.0
75	0.3668199778	1.946700096	-0.02662999928	-17.58818245	-18.03508377	-0.7093911767	1.0
76	0.3668199778	1.946700096	-0.02662999928	-17.13878441	-18.17254257	-1.187301159	1.0
77	0.3668199778	1.946700096	-0.02662999928	-15.97826004	-17.64373779	-2.207220078	1.0
78	0.3668199778	1.946700096	-0.02662999928	-15.75629902	-16.80456543	-2.626641035	1.0
79	0.3668199778	1.946700096	-0.02662999928	-16.70564842	-16.74679756	-2.577679157	1.0
80	0.3668199778	1.946700096	-0.02662999928	-14.89218807	-17.41717148	-4.05626297	1.0
[LeftArm]
73	1.140689969	0	0	56.0830574	0.5185775161	-72.77135468	1.0
74	1.140689969	0	0	57.34388351	-2.061446428	-71.30101013	1.0
75	1.140689969	0	0	57.44869995	-4.25317812	-71.17355347	1.0
76	1.140689969	0	0	55.0628891	-4.364613533	-72.19242859	1.0
77	1.140689969	0	0	53.71509171	-1.906626582	-74.62531281	1.0
78	1.140689969	0	0	53.65490341	1.210434318	-77.0510025	1.0
79	1.140689969	0	0	53.18965912	3.635505438	-77.96373749	1.0
80	1.140689969	0	0	53.86175537	2.606458664	-76.6953125	1.0
[LeftForeArm]
73	2.749800205	0	0	-9.791516304	-38.87911606	9.829264641	1.0
74	2.749800205	0	0	-13.36082363	-47.52235413	13.27494812	1.0
75	2.749800205	0	0	-17.11924934	-51.01208496	14.66803646	1.0
76	2.749800205	0	0	-15.03879452	-52.1142807	15.49507523	1.0
77	2.749800205	0	0	-17.72323036	-49.62261963	18.86259651	1.0
78	2.749800205	0	0	-28.69755936	-45.80968094	18.10885048	1.0
79	2.749800205	0	0	-36.49860764	-41.14496613	15.21932888	1.0
80	2.749800205	0	0	-39.93364716	-37.03833389	13.15918159	1.0
[LeftHand]
73	2.295179844	0	0	-6.012062073	-11.61725616	-2.97865653	1.0
74	2.295179844	0	0	-6.699913025	-11.35296822	-7.981677532	1.0
75	2.295179844	0	0	0.03174446523	-16.01397705	2.727547407	1.0
76	2.295179844	0	0	-3.404544353	-16.48628426	6.725152969	1.0
77	2.295179844	0	0	-5.456850529	-13.69134808	1.522459388	1.0
78	2.295179844	0	0	2.892223358	-11.64586067	-29.16403389	1.0
79	2.295179844	0	0	1.586412072	-1.764052033	-75.76015472	1.0
80	2.295179844	0	0	-8.931184769	10.01783371	-78.37797546	1.0
[RightShoulder]
73	-0.3601199985	1.946700096	-0.02662999928	-4.446453571	2.033036709	172.9954224	1.0
74	-0.3601199985	1.946700096	-0.02662999928	-3.852372885	1.436349392	172.5763855	1.0
75	-0.3601199985	1.946700096	-0.02662999928	-4.279601574	0.5186969638	172.1628418	1.0
76	-0.3601199985	1.946700096	-0.02662999928	-4.318047523	0.3119201362	172.7815247	1.0
77	-0.3601199985	1.946700096	-0.02662999928	-4.2532897	0.7683119178	172.721405	1.0
78	-0.3601199985	1.946700096	-0.02662999928	-4.161481857	0.383302927	173.2544556	1.0
79	-0.3601199985	1.946700096	-0.02662999928	-0.7367730141	0.07000970095	175.1004944	1.0
80	-0.3601199985	1.946700096	-0.02662999928	-2.11003828	0.4021701217	175.7289734	1.0
[RightArm]
73	-1.140689969	0	0	30.10630417	-7.373705864	-108.5792923	1.0
74	-1.140689969	0	0	23.59882164	-10.72905636	-110.1447067	1.0
75	-1.140689969	0	0	18.81877327	-12.94036674	-109.8288269	1.0
76	-1.140689969	0	0	20.72164726	-11.5132103	-108.020462	1.0
77	-1.140689969	0	0	23.91960144	-9.59736824	-106.1949768	1.0
78	-1.140689969	0	0	26.07930756	-9.215187073	-105.4546356	1.0
79	-1.140689969	0	0	27.21713448	-6.334197521	-105.3082657	1.0
80	-1.140689969	0	0	31.48247719	-6.55633831	-103.9637299	1.0
[RightForeArm]
73	-2.749800205	0	0	7.723706722	7.342952251	186.6594238	1.0
74	-2.749800205	0	0	8.781763077	8.197915077	187.7158203	1.0
75	-2.749800205	0	0	8.709849358	6.529863358	187.8995972	1.0
76	-2.749800205	0	0	5.364562511	2.246536016	185.8865967	1.0
77	-2.749800205	0	0	3.210187912	-0.5962747931	185.3279877	1.0
78	-2.749800205	0	0	4.348653793	0.3800730705	185.7857208	1.0
79	-2.749800205	0	0	4.814248085	3.986177921	185.1766052	1.0
80	-2.749800205	0	0	3.059700012	8.239074707	183.4879761	1.0
[RightHand]
73	-2.295179844	0	0	6.990871429	4.850216389	172.804657	1.0
74	-2.295179844	0	0	7.907836914	5.220890045	172.9410553	1.0
75	-2.295179844	0	0	8.011957169	3.541938782	172.0580444	1.0
76	-2.295179844	0	0	5.182315826	0.8420021534	171.4020538	1.0
77	-2.295179844	0	0	3.387447834	-2.090883493	171.8424377	1.0
78	-2.295179844	0	0	4.390258312	-1.297150135	175.2890625	1.0
79	-2.295179844	0	0	4.589646339	3.08408761	178.2061768	1.0
80	-2.295179844	0	0	2.701379061	6.198652267	178.0550232	1.0
[LeftUpLeg]
73	0.9094099998	0	0	11.87452984	1.790452838	87.44617462	1.0
74	0.9094099998	0	0	15.1060009	2.304285765	87.11871338	1.0
75	0.9094099998	0	0	15.75035954	2.404317856	88.00198364	1.0
76	0.9094099998	0	0	16.61472511	1.800845385	90.37008667	1.0
77	0.9094099998	0	0	13.23839855	6.373620033	91.82992554	1.0
78	0.9094099998	0	0	9.347126961	8.242278099	92.42484283	1.0
79	0.9094099998	0	0	5.222442627	1.080307961	93.74760437	1.0
80	0.9094099998	0	0	-0.7124944925	9.552051544	96.18444824	1.0
[LeftLeg]
73	0	-4.498080254	0	2.47971487	-11.53755856	85.52891541	1.0
74	0	-4.498080254	0	2.777761698	-12.53501797	85.88902283	1.0
75	0	-4.498080254	0	7.609899044	-9.787819862	85.04187012	1.0
76	0	-4.498080254	0	12.4463768	-4.041614056	85.8612442	1.0
77	0	-4.498080254	0	25.3133316	2.46386981	90.53746796	1.0
78	0	-4.498080254	0	36.46850204	3.222349882	91.72175598	1.0
79	0	-4.498080254	0	47.54004669	6.762296677	86.35144806	1.0
80	0	-4.498080254	0	60.67759323	3.664491177	94.32281494	1.0
[LeftFoot]
73	0	-3.729400158	0	-88.77484131	114.2173843	-31.80995178	1.0
74	0	-3.729400158	0	-93.26531219	112.5661011	-33.50022888	1.0
75	0	-3.729400158	0	-105.3964996	110.3883667	-41.81874847	1.0
76	0	-3.729400158	0	-115.6063385	106.7909546	-53.45978165	1.0
77	0	-3.729400158	0	-159.5739746	104.4063797	-104.3590775	1.0
78	0	-3.729400158	0	-164.4225769	106.7264786	-114.8716278	1.0
79	0	-3.729400158	0	-144.2192993	99.31230164	-98.36420441	1.0
80	0	-3.729400158	0	-137.371109	115.8463135	-99.84339905	1.0
[LeftToeBase]
73	0	-0.5911099911	1.364109993	0	0	0	1.0
74	0	-0.5911099911	1.364109993	0	0	0	1.0
75	0	-0.5911099911	1.364109993	0	0	0	1.0
76	0	-0.5911099911	1.364109993	0	0	0	1.0
77	0	-0.5911099911	1.364109993	0	0	0	1.0
78	0	-0.5911099911	1.364109993	0	0	0	1.0
79	0	-0.5911099911	1.364109993	0	0	0	1.0
80	0	-0.5911099911	1.364109993	0	0	0	1.0
[RightUpLeg]
73	-0.9094099998	0	0	-17.90815926	-4.535236359	95.46700287	1.0
74	-0.9094099998	0	0	-12.85666943	2.398779869	91.09558868	1.0
75	-0.9094099998	0	0	-13.97399998	1.242265224	92.84303284	1.0
76	-0.9094099998	0	0	-11.11987591	3.151557446	95.44517517	1.0
77	-0.9094099998	0	0	-6.604577065	-8.189551353	97.05062103	1.0
78	-0.9094099998	0	0	-4.566411972	-7.054884911	96.03791046	1.0
79	-0.9094099998	0	0	-3.440476418	0.4067233205	96.15937805	1.0
80	-0.9094099998	0	0	-2.803364038	0.1795721501	99.39031982	1.0
[RightLeg]
73	0	-4.498080254	0	11.8487339	-3.822274923	84.38559723	1.0
74	0	-4.498080254	0	-1.381428242	0.2087877989	87.94836426	1.0
75	0	-4.498080254	0	0.7120984793	-0.2880565226	88.07028198	1.0
76	0	-4.498080254	0	6.502430916	-0.7770543098	86.35623169	1.0
77	0	-4.498080254	0	-0.5307453871	0.5710454583	90.96025848	1.0
78	0	-4.498080254	0	-0.04909089953	0.4975941479	92.28703308	1.0
79	0	-4.498080254	0	13.51699352	1.803420186	88.68776703	1.0
80	0	-4.498080254	0	10.33754826	0.7302632928	83.79203796	1.0
[RightFoot]
73	0	-3.729400158	0	71.36231995	65.52650452	113.1450806	1.0
74	0	-3.729400158	0	91.64936829	59.87631226	129.5241547	1.0
75	0	-3.729400158	0	130.4512634	45.41156006	178.6154938	1.0
76	0	-3.729400158	0	78.4098587	61.71475983	120.2149048	1.0
77	0	-3.729400158	0	128.6888733	38.76921463	176.7910767	1.0
78	0	-3.729400158	0	112.214798	51.98907089	158.3166656	1.0
79	0	-3.729400158	0	44.11135101	66.83859253	89.03590393	1.0
80	0	-3.729400158	0	68.14964294	60.84545135	117.1323776	1.0
[RightToeBase]
73	0	-0.5911099911	1.364109993	0	0	0	1.0
74	0	-0.5911099911	1.364109993	0	0	0	1.0
75	0	-0.5911099911	1.364109993	0	0	0	1.0
76	0	-0.5911099911	1.364109993	0	0	0	1.0
77	0	-0.5911099911	1.364109993	0	0	0	1.0
78	0	-0.5911099911	1.364109993	0	0	0	1.0
79	0	-0.5911099911	1.364109993	0	0	0	1.0
80	0	-0.5911099911	1.364109993	0	0	0	1.0
[EndOfFile]
